<svg width="33" height="33" viewBox="0 0 33 33" fill="none" xmlns="http://www.w3.org/2000/svg">
<rect width="33" height="32" transform="translate(0 0.5)" fill="#F2F3FF"/>
<path d="M16.5 29.8333C14.6208 29.8333 12.8448 29.4833 11.1719 28.7833C9.49896 28.0833 8.03802 27.1278 6.78906 25.9167C5.5401 24.7056 4.55469 23.2889 3.83281 21.6667C3.11094 20.0445 2.75 18.3222 2.75 16.5C2.75 14.6556 3.11094 12.9278 3.83281 11.3167C4.55469 9.70556 5.5401 8.29445 6.78906 7.08334C8.03802 5.87223 9.49896 4.91667 11.1719 4.21667C12.8448 3.51667 14.6208 3.16667 16.5 3.16667C18.4021 3.16667 20.1839 3.51667 21.8453 4.21667C23.5068 4.91667 24.962 5.87223 26.2109 7.08334C27.4599 8.29445 28.4453 9.70556 29.1672 11.3167C29.8891 12.9278 30.25 14.6556 30.25 16.5C30.25 18.3222 29.8891 20.0445 29.1672 21.6667C28.4453 23.2889 27.4599 24.7056 26.2109 25.9167C24.962 27.1278 23.5068 28.0833 21.8453 28.7833C20.1839 29.4833 18.4021 29.8333 16.5 29.8333ZM16.5 27.1C17.0958 26.3 17.6115 25.4667 18.0469 24.6C18.4823 23.7333 18.8375 22.8111 19.1125 21.8333H13.8875C14.1625 22.8111 14.5177 23.7333 14.9531 24.6C15.3885 25.4667 15.9042 26.3 16.5 27.1ZM12.925 26.5667C12.5125 25.8333 12.1516 25.0722 11.8422 24.2833C11.5328 23.4945 11.275 22.6778 11.0688 21.8333H7.0125C7.67708 22.9445 8.50781 23.9111 9.50469 24.7333C10.5016 25.5556 11.6417 26.1667 12.925 26.5667ZM20.075 26.5667C21.3583 26.1667 22.4984 25.5556 23.4953 24.7333C24.4922 23.9111 25.3229 22.9445 25.9875 21.8333H21.9312C21.725 22.6778 21.4672 23.4945 21.1578 24.2833C20.8484 25.0722 20.4875 25.8333 20.075 26.5667ZM5.84375 19.1667H10.5188C10.45 18.7222 10.3984 18.2833 10.3641 17.85C10.3297 17.4167 10.3125 16.9667 10.3125 16.5C10.3125 16.0333 10.3297 15.5833 10.3641 15.15C10.3984 14.7167 10.45 14.2778 10.5188 13.8333H5.84375C5.72917 14.2778 5.64323 14.7167 5.58594 15.15C5.52865 15.5833 5.5 16.0333 5.5 16.5C5.5 16.9667 5.52865 17.4167 5.58594 17.85C5.64323 18.2833 5.72917 18.7222 5.84375 19.1667ZM13.2688 19.1667H19.7313C19.8 18.7222 19.8516 18.2833 19.8859 17.85C19.9203 17.4167 19.9375 16.9667 19.9375 16.5C19.9375 16.0333 19.9203 15.5833 19.8859 15.15C19.8516 14.7167 19.8 14.2778 19.7313 13.8333H13.2688C13.2 14.2778 13.1484 14.7167 13.1141 15.15C13.0797 15.5833 13.0625 16.0333 13.0625 16.5C13.0625 16.9667 13.0797 17.4167 13.1141 17.85C13.1484 18.2833 13.2 18.7222 13.2688 19.1667ZM22.4813 19.1667H27.1562C27.2708 18.7222 27.3568 18.2833 27.4141 17.85C27.4714 17.4167 27.5 16.9667 27.5 16.5C27.5 16.0333 27.4714 15.5833 27.4141 15.15C27.3568 14.7167 27.2708 14.2778 27.1562 13.8333H22.4813C22.55 14.2778 22.6016 14.7167 22.6359 15.15C22.6703 15.5833 22.6875 16.0333 22.6875 16.5C22.6875 16.9667 22.6703 17.4167 22.6359 17.85C22.6016 18.2833 22.55 18.7222 22.4813 19.1667ZM21.9312 11.1667H25.9875C25.3229 10.0556 24.4922 9.08889 23.4953 8.26667C22.4984 7.44445 21.3583 6.83334 20.075 6.43334C20.4875 7.16667 20.8484 7.92778 21.1578 8.71667C21.4672 9.50556 21.725 10.3222 21.9312 11.1667ZM13.8875 11.1667H19.1125C18.8375 10.1889 18.4823 9.26667 18.0469 8.40001C17.6115 7.53334 17.0958 6.70001 16.5 5.90001C15.9042 6.70001 15.3885 7.53334 14.9531 8.40001C14.5177 9.26667 14.1625 10.1889 13.8875 11.1667ZM7.0125 11.1667H11.0688C11.275 10.3222 11.5328 9.50556 11.8422 8.71667C12.1516 7.92778 12.5125 7.16667 12.925 6.43334C11.6417 6.83334 10.5016 7.44445 9.50469 8.26667C8.50781 9.08889 7.67708 10.0556 7.0125 11.1667Z" fill="#3542D7"/>
</svg>
