<svg width="24" height="24" viewBox="0 0 24 24" fill="none" xmlns="http://www.w3.org/2000/svg">
<path d="M12.0001 22C10.7501 22 9.57927 21.7625 8.4876 21.2875C7.39593 20.8125 6.44593 20.1708 5.6376 19.3625C4.82926 18.5542 4.1876 17.6042 3.7126 16.5125C3.2376 15.4208 3.0001 14.25 3.0001 13C3.0001 11.75 3.2376 10.5792 3.7126 9.48751C4.1876 8.39584 4.82926 7.44584 5.6376 6.63751C6.44593 5.82917 7.39593 5.18751 8.4876 4.71251C9.57927 4.23751 10.7501 4.00001 12.0001 4.00001C13.2501 4.00001 14.4209 4.23751 15.5126 4.71251C16.6043 5.18751 17.5543 5.82917 18.3626 6.63751C19.1709 7.44584 19.8126 8.39584 20.2876 9.48751C20.7626 10.5792 21.0001 11.75 21.0001 13C21.0001 14.25 20.7626 15.4208 20.2876 16.5125C19.8126 17.6042 19.1709 18.5542 18.3626 19.3625C17.5543 20.1708 16.6043 20.8125 15.5126 21.2875C14.4209 21.7625 13.2501 22 12.0001 22ZM14.8001 17.2L16.2001 15.8L13.0001 12.6V8.00001H11.0001V13.4L14.8001 17.2ZM5.6001 2.35001L7.0001 3.75001L2.7501 8.00001L1.3501 6.60001L5.6001 2.35001ZM18.4001 2.35001L22.6501 6.60001L21.2501 8.00001L17.0001 3.75001L18.4001 2.35001ZM12.0001 20C13.9501 20 15.6043 19.3208 16.9626 17.9625C18.3209 16.6042 19.0001 14.95 19.0001 13C19.0001 11.05 18.3209 9.39584 16.9626 8.03751C15.6043 6.67917 13.9501 6.00001 12.0001 6.00001C10.0501 6.00001 8.39593 6.67917 7.0376 8.03751C5.67926 9.39584 5.0001 11.05 5.0001 13C5.0001 14.95 5.67926 16.6042 7.0376 17.9625C8.39593 19.3208 10.0501 20 12.0001 20Z" fill="#1D1B20"/>
</svg>
