<svg width="16" height="16" viewBox="0 0 16 16" fill="none" xmlns="http://www.w3.org/2000/svg">
<path d="M2.67409 13.9453H13.326C13.7043 13.9452 13.9904 13.7828 14.1843 13.458C14.3783 13.1333 14.3856 12.8043 14.2063 12.4713L8.88066 2.58063C8.50284 1.87937 7.49722 1.87937 7.11941 2.58063L1.79378 12.4712C1.61445 12.8043 1.62176 13.1333 1.81572 13.458C2.00968 13.7828 2.2958 13.9452 2.67409 13.9453Z" stroke="#FF9500" stroke-linejoin="round"/>
<path d="M7.82057 6.10599L7.99995 9.91849L8.17901 6.10755C8.18135 6.05613 8.16464 6.0119 8.1289 5.97486C8.09315 5.93782 8.04955 5.91955 7.99807 5.92005C7.9476 5.92055 7.90494 5.93905 7.87008 5.97556C7.83523 6.01207 7.81873 6.05555 7.82057 6.10599Z" stroke="#FF9500" stroke-linejoin="round"/>
<path d="M8 12.4141C7.82741 12.4141 7.6801 12.353 7.55806 12.231C7.43602 12.109 7.375 11.9617 7.375 11.7891C7.375 11.6165 7.43602 11.4692 7.55806 11.3471C7.6801 11.2251 7.82741 11.1641 8 11.1641C8.17259 11.1641 8.3199 11.2251 8.44194 11.3471C8.56398 11.4692 8.625 11.6165 8.625 11.7891C8.625 11.9616 8.56398 12.109 8.44194 12.231C8.3199 12.353 8.17259 12.4141 8 12.4141Z" fill="#FF9500"/>
</svg>
