<svg width="34" height="35" viewBox="0 0 34 35" fill="none" xmlns="http://www.w3.org/2000/svg">
<path d="M16.9999 24.5833C17.4013 24.5833 17.7378 24.4476 18.0093 24.176C18.2808 23.9045 18.4166 23.5681 18.4166 23.1667C18.4166 22.7653 18.2808 22.4288 18.0093 22.1573C17.7378 21.8858 17.4013 21.75 16.9999 21.75C16.5985 21.75 16.2621 21.8858 15.9905 22.1573C15.719 22.4288 15.5833 22.7653 15.5833 23.1667C15.5833 23.5681 15.719 23.9045 15.9905 24.176C16.2621 24.4476 16.5985 24.5833 16.9999 24.5833ZM15.5833 18.9167H18.4166V10.4167H15.5833V18.9167ZM16.9999 31.6667C15.0402 31.6667 13.1985 31.2948 11.4749 30.551C9.75131 29.8073 8.252 28.7979 6.977 27.5229C5.702 26.2479 4.69263 24.7486 3.94888 23.025C3.20513 21.3014 2.83325 19.4597 2.83325 17.5C2.83325 15.5403 3.20513 13.6986 3.94888 11.975C4.69263 10.2514 5.702 8.75208 6.977 7.47708C8.252 6.20208 9.75131 5.1927 11.4749 4.44895C13.1985 3.7052 15.0402 3.33333 16.9999 3.33333C18.9596 3.33333 20.8013 3.7052 22.5249 4.44895C24.2485 5.1927 25.7478 6.20208 27.0228 7.47708C28.2978 8.75208 29.3072 10.2514 30.051 11.975C30.7947 13.6986 31.1666 15.5403 31.1666 17.5C31.1666 19.4597 30.7947 21.3014 30.051 23.025C29.3072 24.7486 28.2978 26.2479 27.0228 27.5229C25.7478 28.7979 24.2485 29.8073 22.5249 30.551C20.8013 31.2948 18.9596 31.6667 16.9999 31.6667Z" fill="#A27005"/>
</svg>
