<svg width="16" height="16" viewBox="0 0 16 16" fill="none" xmlns="http://www.w3.org/2000/svg">
<path d="M3.5 10C3.5 7.09375 7.375 4.84375 6.5 1.5C8.5625 1.5 12.5 4.5 12.5 10C12.5 11.2426 12.0607 12.3033 11.182 13.182C10.3033 14.0607 9.24264 14.5 8 14.5C6.75736 14.5 5.6967 14.0607 4.81802 13.182C3.93934 12.3033 3.5 11.2426 3.5 10Z" stroke="#FF3B30" stroke-linejoin="round"/>
<path d="M10 11.5C10 13.3034 9 14 8 14C7 14 6 13.3034 6 11.5C6 9.69656 7.25 8.8125 7 7.5C8.3125 7.5 10 9.69656 10 11.5Z" stroke="#FF3B30" stroke-linejoin="round"/>
</svg>
