<svg width="33" height="43" viewBox="0 0 33 43" fill="none" xmlns="http://www.w3.org/2000/svg">
<path d="M33 30.08C33 39.5572 27.1808 42.62 17.5102 42.62C7.83958 42.62 0 34.9372 0 25.46C0 15.9828 17.5102 0.380005 17.5102 0.380005C17.5102 0.380005 17.8469 8.2407 22.2245 13.3261C26.602 18.4114 33 25.3414 33 30.08Z" fill="#E61C1C"/>
<path d="M29.04 33.9988C29.04 40.5143 24.8502 42.62 17.8874 42.62C10.9245 42.62 5.28003 37.3381 5.28003 30.8225C5.28003 24.3069 17.8874 13.58 17.8874 13.58C17.8874 13.58 18.1298 18.9842 21.2817 22.4804C24.4335 25.9766 29.04 30.741 29.04 33.9988Z" fill="#E2A41E"/>
<path d="M23.7601 37.9175C23.7601 41.4715 21.4324 42.62 17.5641 42.62C13.6959 42.62 10.5601 39.739 10.5601 36.185C10.5601 32.631 17.5641 26.78 17.5641 26.78C17.5641 26.78 17.6988 29.7278 19.4499 31.6348C21.2009 33.5418 23.7601 36.1405 23.7601 37.9175Z" fill="#FFE606"/>
</svg>
