<svg width="16" height="16" viewBox="0 0 16 16" fill="none" xmlns="http://www.w3.org/2000/svg">
<path d="M7.75 2C4.57469 2 2 4.57469 2 7.75C2 10.9253 4.57469 13.5 7.75 13.5C10.9253 13.5 13.5 10.9253 13.5 7.75C13.5 4.57469 10.9253 2 7.75 2Z" stroke="#007AFF"/>
<path d="M6.875 6.875H7.875V10.5" stroke="#007AFF" stroke-linecap="round" stroke-linejoin="round"/>
<path d="M6.5 10.625H9.25" stroke="#007AFF" stroke-linecap="round"/>
<path d="M7.75 4.0625C7.52563 4.0625 7.33413 4.14183 7.17548 4.30048C7.01683 4.45913 6.9375 4.65063 6.9375 4.875C6.9375 5.09937 7.01683 5.29087 7.17548 5.44952C7.33413 5.60817 7.52563 5.6875 7.75 5.6875C7.97437 5.6875 8.16587 5.60817 8.32452 5.44952C8.48317 5.29087 8.5625 5.09937 8.5625 4.875C8.5625 4.65063 8.48317 4.45913 8.32452 4.30048C8.16587 4.14183 7.97437 4.0625 7.75 4.0625Z" fill="#007AFF"/>
</svg>
