<svg width="25" height="24" viewBox="0 0 25 24" fill="none" xmlns="http://www.w3.org/2000/svg">
<path d="M13.011 2.25005C7.52755 2.17599 3.05099 6.65255 3.12505 12.136C3.19818 17.3949 7.48021 21.6769 12.7391 21.7501C18.2235 21.8251 22.6991 17.3485 22.6241 11.8651C22.5519 6.60521 18.2699 2.32318 13.011 2.25005ZM18.9369 17.5899C18.8972 17.6329 18.848 17.6529 18.7895 17.6498C18.731 17.6468 18.6842 17.6218 18.6491 17.5749C18.4395 17.3006 18.2073 17.047 17.9526 16.814C17.6978 16.581 17.4245 16.3723 17.1327 16.1879C15.9393 15.4219 14.4271 15.0001 12.8751 15.0001C11.323 15.0001 9.81083 15.4219 8.61739 16.1879C8.32557 16.3722 8.05229 16.5808 7.79756 16.8137C7.54283 17.0467 7.31064 17.3002 7.10099 17.5744C7.0659 17.6213 7.0191 17.6463 6.9606 17.6494C6.90209 17.6524 6.85295 17.6324 6.81318 17.5894C6.12544 16.847 5.59301 16.0063 5.21588 15.0671C4.83875 14.128 4.64181 13.1525 4.62505 12.1407C4.54865 7.57927 8.29161 3.7613 12.8549 3.75005C17.4182 3.7388 21.1251 7.44427 21.1251 12.0001C21.1258 13.0363 20.9374 14.0369 20.5596 15.0019C20.1819 15.9669 19.641 16.8295 18.9369 17.5899Z" fill="#6B7280"/>
<path d="M12.875 6.75C11.9506 6.75 11.1148 7.09641 10.5209 7.72594C9.92699 8.35547 9.63027 9.22594 9.69731 10.1602C9.83324 12 11.2587 13.5 12.875 13.5C14.4912 13.5 15.9139 12 16.0526 10.1606C16.122 9.23531 15.8276 8.37281 15.2239 7.73156C14.6276 7.09875 13.7932 6.75 12.875 6.75Z" fill="#6B7280"/>
</svg>
