<?xml version="1.0" encoding="utf-8" ?>
<svg xmlns="http://www.w3.org/2000/svg" xmlns:xlink="http://www.w3.org/1999/xlink" width="12" height="12" viewBox="0 0 12 12">
	<defs>
		<clipPath id="clipPath1884779506">
			<path d="M0 0L12 0L12 12L0 12L0 0Z" fill-rule="nonzero" transform="matrix(1 0 0 1 0 0)"/>
		</clipPath>
	</defs>
	<g clip-path="url(#clipPath1884779506)">
		<rect width="9" height="5.5" rx="1" ry="1" stroke-width="1" stroke-linejoin="round" transform="matrix(1 0 0 1 1.5 5.5)" stroke="rgb(161, 161, 170)" fill="transparent"/>
		<path d="M-0.5 2.5L-0.5 4.5C-0.5 4.77614 -0.27614 5 0 5C0.27614 5 0.5 4.77614 0.5 4.5L0.5 2.5Q0.5 1.67157 1.08579 1.08579Q1.67157 0.5 2.5 0.5Q3.32843 0.5 3.91421 1.08579Q4.5 1.67157 4.5 2.5L4.5 4.5C4.5 4.77614 4.72386 5 5 5C5.27614 5 5.5 4.77614 5.5 4.5L5.5 2.5Q5.5 1.25736 4.62132 0.37868Q3.74264 -0.5 2.5 -0.5Q1.25736 -0.5 0.37868 0.378679Q-0.5 1.25736 -0.5 2.5Z" fill-rule="evenodd" transform="matrix(1 0 0 1 3.5 1)" fill="rgb(161, 161, 170)"/>
	</g>
</svg>
