<svg width="210" height="177" viewBox="0 0 210 177" fill="none" xmlns="http://www.w3.org/2000/svg">
<path d="M1 194.896C9.07037 130.264 71.833 1 245.905 1M4.10399 203.61C12.1744 138.978 74.937 9.71441 249.009 9.71441M10.312 209.835C18.3823 145.203 81.145 15.939 255.217 15.939M16.5199 216.059C24.5903 151.427 87.3529 22.1636 261.425 22.1636M22.7279 222.284C30.7983 157.652 93.5609 28.3882 267.633 28.3882M28.9359 228.508C37.0063 163.877 99.7689 34.6127 273.841 34.6127M35.1439 234.733C43.2142 170.101 105.977 40.8373 280.048 40.8373M41.3518 240.958C49.4222 176.326 112.185 47.0619 286.256 47.0619M47.5598 247.182C55.6302 182.55 118.393 53.2865 292.464 53.2865M53.7678 253.407C61.8382 188.775 124.601 59.5111 298.672 59.5111M59.9758 259.631C68.0461 194.999 130.809 65.7356 304.88 65.7356M66.1837 265.856C74.2541 201.224 137.017 71.9602 311.088 71.9602M72.3917 272.08C80.4621 207.449 143.225 78.1848 317.296 78.1848M78.5997 278.305C86.6701 213.673 149.433 84.4094 323.504 84.4094M84.8077 284.53C92.878 219.898 155.641 90.6339 329.712 90.6339M91.0156 290.754C99.086 226.122 161.849 96.8585 335.92 96.8585M97.2236 296.979C105.294 232.347 168.057 103.083 342.128 103.083M103.432 303.203C111.502 238.571 174.265 109.308 348.336 109.308M109.64 309.428C117.71 244.796 180.473 115.532 354.544 115.532M115.848 315.653C123.918 251.021 186.681 121.757 360.752 121.757M122.056 321.877C130.126 257.245 192.889 127.981 366.96 127.981M128.263 328.102C136.334 263.47 199.096 134.206 373.168 134.206M134.471 334.326C142.542 269.694 205.304 140.431 379.376 140.431M140.679 340.551C148.75 275.919 211.512 146.655 385.584 146.655M146.887 346.775C154.958 282.144 217.72 152.88 391.792 152.88M153.095 353C161.166 288.368 223.928 159.104 398 159.104" stroke="#2E3188"/>
</svg>
