<svg width="184" height="190" viewBox="0 0 184 190" fill="none" xmlns="http://www.w3.org/2000/svg">
<path d="M-7.98637 0.728188C53.9442 6.88117 178.945 63.8372 183.201 230.547M-16.2341 3.9134C45.6965 10.0664 170.698 67.0224 174.954 233.732M-22.0277 10.0106C39.9029 16.1636 164.904 73.1196 169.16 239.829M-27.8213 16.1078C34.1093 22.2608 159.11 79.2169 163.366 245.926M-33.615 22.205C28.3156 28.358 153.317 85.3141 157.573 252.024M-39.4086 28.3022C22.522 34.4552 147.523 91.4113 151.779 258.121M-45.2022 34.3994C16.7284 40.5524 141.729 97.5085 145.986 264.218M-50.9958 40.4966C10.9347 46.6496 135.936 103.606 140.192 270.315M-56.7895 46.5938C5.14111 52.7468 130.142 109.703 134.398 276.412M-62.5831 52.691C-0.652523 58.844 124.349 115.8 128.605 282.51M-68.3767 58.7883C-6.44615 64.9412 118.555 121.897 122.811 288.607M-74.1704 64.8855C-12.2398 71.0384 112.761 127.994 117.017 294.704M-79.964 70.9827C-18.0334 77.1356 106.968 134.092 111.224 300.801M-85.7576 77.0799C-23.827 83.2329 101.174 140.189 105.43 306.898M-91.5513 83.1771C-29.6207 89.3301 95.3804 146.286 99.6365 312.996M-97.3449 89.2743C-35.4143 95.4273 89.5868 152.383 93.8429 319.093M-103.139 95.3715C-41.2079 101.524 83.7932 158.481 88.0493 325.19M-108.932 101.469C-47.0016 107.622 77.9995 164.578 82.2557 331.287M-114.726 107.566C-52.7952 113.719 72.2059 170.675 76.462 337.384M-120.519 113.663C-58.5888 119.816 66.4123 176.772 70.6684 343.482M-126.313 119.76C-64.3825 125.913 60.6186 182.869 64.8748 349.579M-132.107 125.858C-70.1761 132.011 54.825 188.967 59.0811 355.676M-137.9 131.955C-75.9697 138.108 49.0314 195.064 53.2875 361.773M-143.694 138.052C-81.7634 144.205 43.2377 201.161 47.4939 367.87M-149.488 144.149C-87.557 150.302 37.4441 207.258 41.7002 373.968M-155.281 150.246C-93.3506 156.399 31.6505 213.355 35.9066 380.065" stroke="#8AB23E"/>
</svg>
