<?xml version="1.0" encoding="utf-8" ?>
<svg xmlns="http://www.w3.org/2000/svg" xmlns:xlink="http://www.w3.org/1999/xlink" width="20" height="20" viewBox="0 0 20 20">
	<defs>
		<clipPath id="clipPath8545015884">
			<path d="M0 0L20 0L20 20L0 20L0 0Z" fill-rule="nonzero" transform="matrix(1 0 0 1 0 0)"/>
		</clipPath>
	</defs>
	<g clip-path="url(#clipPath8545015884)">
		<path d="M1.09059 5.01339Q1.54289 3.8482 2.37664 2.91701C2.60689 2.65985 2.58508 2.26472 2.32792 2.03447C2.07076 1.80422 1.67563 1.82603 1.44538 2.08319Q0.45991 3.18383 -0.0746934 4.56105Q-0.609297 5.93828 -0.624503 7.41554Q-0.64289 9.07275 -0.00833952 10.5977Q0.603081 12.067 1.73131 13.2058Q2.85871 14.3438 4.32336 14.9714Q5.84168 15.622 7.49929 15.6251Q9.15432 15.6282 10.6654 14.9906Q12.1242 14.375 13.2483 13.25Q14.3717 12.1257 14.9878 10.6657Q15.6255 9.15468 15.6255 7.5001Q15.6255 5.87084 15.0041 4.37836Q14.404 2.93727 13.3078 1.8167Q12.2127 0.697283 10.7868 0.0656613Q9.31242 -0.587445 7.69061 -0.624734Q7.35889 -0.635417 7.11671 -0.400223Q6.87452 -0.165034 6.87547 0.172556L6.87546 3.4376C6.87546 3.78278 7.15529 4.0626 7.50046 4.0626C7.84564 4.0626 8.12546 3.78278 8.12546 3.4376L8.12546 0.650762Q9.24642 0.750466 10.2806 1.20855Q11.487 1.74297 12.4143 2.69083Q13.3424 3.63959 13.8501 4.85882Q14.3755 6.12067 14.3755 7.5001Q14.3755 8.90172 13.8361 10.1797Q13.3149 11.4148 12.364 12.3665Q11.4128 13.3185 10.1795 13.8389Q8.90251 14.3777 7.50164 14.3751Q6.09933 14.3725 4.81567 13.8224Q3.57512 13.2909 2.61932 12.3261Q1.6632 11.361 1.14573 10.1174Q0.609883 8.82972 0.625431 7.42841Q0.638296 6.17858 1.09059 5.01339Z" fill-rule="evenodd" transform="matrix(1 0 0 1 2.49954 2.4999)" fill="rgb(156, 163, 175)"/>
		<path d="M3.14323 4.91354L0.0572944 0.499482C0.0132346 0.436366 -0.00541349 0.36647 0.00135005 0.289794C0.00811358 0.213118 0.0387094 0.147566 0.0931376 0.0931376C0.147566 0.038709 0.213118 0.00811319 0.289794 0.00135005C0.36647 -0.00541389 0.436366 0.013234 0.499482 0.0572938L4.91355 3.14323C5.19524 3.34611 5.36513 3.61867 5.42323 3.96092C5.48133 4.30317 5.4109 4.61653 5.21194 4.901C5.01298 5.18547 4.74279 5.35912 4.40138 5.42196C4.05997 5.48479 3.74567 5.4187 3.45847 5.2237C3.39744 5.18141 3.34046 5.13423 3.28754 5.08215C3.23461 5.03008 3.18651 4.97388 3.14323 4.91354Z" fill-rule="nonzero" transform="matrix(1 0 0 1 5.97317 5.97044)" fill="rgb(156, 163, 175)"/>
	</g>
</svg>
